HIERARCHY
ROOT Hips
{
	OFFSET -0.001795 -0.223333 0.028219
	CHANNELS 6 Xposition Yposition Zposition Zrotation Yrotation Xrotation 
	JOINT LeftUpLeg
	{
		OFFSET 0.069520 -0.091406 -0.006815
		CHANNELS 3 Zrotation Yrotation Xrotation
		JOINT LeftLeg
		{
			OFFSET 0.034277 -0.375199 -0.004496
			CHANNELS 3 Zrotation Yrotation Xrotation
			JOINT LeftFoot
			{
				OFFSET -0.013596 -0.397961 -0.043693
				CHANNELS 3 Zrotation Yrotation Xrotation
				JOINT LeftToe
				{
					OFFSET 0.026358 -0.055791 0.119288
					CHANNELS 3 Zrotation Yrotation Xrotation
					End Site
					{
						OFFSET 0.000000 0.000000 0.000000
					}
				}
			}
		}
	}
	JOINT RightUpLeg
	{
		OFFSET -0.067670 -0.090522 -0.004320
		CHANNELS 3 Zrotation Yrotation Xrotation
		JOINT RightLeg
		{
			OFFSET -0.038290 -0.382569 -0.008850
			CHANNELS 3 Zrotation Yrotation Xrotation
			JOINT RightFoot
			{
				OFFSET 0.015774 -0.398415 -0.042312
				CHANNELS 3 Zrotation Yrotation Xrotation
				JOINT RightToe
				{
					OFFSET -0.025372 -0.048144 0.123348
					CHANNELS 3 Zrotation Yrotation Xrotation
					End Site
					{
						OFFSET 0.000000 0.000000 0.000000
					}
				}
			}
		}
	}
	JOINT Spine
	{
		OFFSET -0.002533 0.108963 -0.026696
		CHANNELS 3 Zrotation Yrotation Xrotation
		JOINT Spine1
		{
			OFFSET 0.005487 0.135180 0.001092
			CHANNELS 3 Zrotation Yrotation Xrotation
			JOINT Spine2
			{
				OFFSET 0.001457 0.052922 0.025425
				CHANNELS 3 Zrotation Yrotation Xrotation
				JOINT Neck
				{
					OFFSET -0.002778 0.213870 -0.042857
					CHANNELS 3 Zrotation Yrotation Xrotation
					JOINT Head
					{
						OFFSET 0.005152 0.064970 0.051349
						CHANNELS 3 Zrotation Yrotation Xrotation
						End Site
						{
							OFFSET 0.000000 0.000000 0.000000
						}
					}
				}
				JOINT LeftShoulder
				{
					OFFSET 0.078845 0.121749 -0.034090
					CHANNELS 3 Zrotation Yrotation Xrotation
					JOINT LeftArm
					{
						OFFSET 0.090977 0.030469 -0.008868
						CHANNELS 3 Zrotation Yrotation Xrotation
						JOINT LeftForeArm
						{
							OFFSET 0.259612 -0.012772 -0.027456
							CHANNELS 3 Zrotation Yrotation Xrotation
							JOINT LeftHand
							{
								OFFSET 0.249234 0.008986 -0.001171
								CHANNELS 3 Zrotation Yrotation Xrotation
								End Site
								{
									OFFSET 0.000000 0.000000 0.000000
								}
							}
						}
					}
				}
				JOINT RightShoulder
				{
					OFFSET -0.081759 0.118833 -0.038615
					CHANNELS 3 Zrotation Yrotation Xrotation
					JOINT RightArm
					{
						OFFSET -0.096012 0.032551 -0.009143
						CHANNELS 3 Zrotation Yrotation Xrotation
						JOINT RightForeArm
						{
							OFFSET -0.253742 -0.013329 -0.021401
							CHANNELS 3 Zrotation Yrotation Xrotation
							JOINT RightHand
							{
								OFFSET -0.255298 0.007772 -0.005559
								CHANNELS 3 Zrotation Yrotation Xrotation
								End Site
								{
									OFFSET 0.000000 0.000000 0.000000
								}
							}
						}
					}
				}
			}
		}
	}
}
MOTION
Frames: 10
Frame Time: 0.050000
-0.177259 0.951572 0.138264 -2.241881 14.677847 -1.303903 5.257880 -0.290744 -1.764108 0.728716 -0.064507 0.038867 6.179359 16.217665 15.313016 0.000000 0.000000 0.000000 -0.819893 0.606609 -6.851146 -2.237564 0.496662 4.669129 5.024552 8.639595 8.137845 0.000000 0.000000 0.000000 9.194528 -0.229635 0.585201 -5.108525 2.272998 2.989508 -5.575934 8.957834 8.248101 6.848170 -5.829658 0.954866 0.000000 0.000000 0.000000 0.331247 -7.886854 2.354528 -44.212198 9.507645 -9.424022 -116.216048 -44.397413 58.872104 0.000000 0.000000 0.000000 1.095954 -1.748031 -0.566162 47.629529 -21.106696 -10.877637 102.378797 31.225312 49.184642 0.000000 0.000000 0.000000 
-0.178516 0.951467 0.135520 -2.472832 14.804752 -1.436528 5.689572 -0.306305 -1.733764 0.471916 -0.030482 -0.266865 6.088398 16.110867 15.333247 0.000000 0.000000 0.000000 -0.450344 0.626209 -6.780304 -2.404275 0.513656 4.372462 4.995813 8.499674 8.358512 0.000000 0.000000 0.000000 9.014269 -0.180683 0.238742 -4.775384 2.104800 3.082613 -5.333075 8.478005 8.076111 7.157760 -6.214962 1.262779 0.000000 0.000000 0.000000 -0.343075 -7.200829 2.017816 -45.043192 8.914641 -9.388382 -119.200920 -46.121466 64.845278 0.000000 0.000000 0.000000 1.771226 -2.291907 -0.728989 47.943513 -20.992002 -10.991519 106.224716 33.778335 55.475350 0.000000 0.000000 0.000000 
-0.180206 0.951690 0.132535 -2.603000 14.608477 -1.357291 5.914160 -0.317405 -1.850566 0.422804 -0.013470 -0.598941 6.136033 16.219047 15.627324 0.000000 0.000000 0.000000 -0.248653 0.644601 -6.818657 -2.412616 0.492173 3.786139 5.152849 8.616585 8.796016 0.000000 0.000000 0.000000 9.086713 -0.163998 0.060584 -4.600314 2.014660 3.238106 -5.222597 8.252413 7.462007 7.229971 -6.377732 1.563859 0.000000 0.000000 0.000000 -1.656823 -6.882650 1.648224 -45.912242 8.135320 -9.187333 -121.981273 -48.234201 71.337419 0.000000 0.000000 0.000000 2.777104 -3.083847 -0.976732 48.954422 -20.300082 -11.056456 109.967409 36.830836 62.897304 0.000000 0.000000 0.000000 
-0.182307 0.951334 0.129319 -2.905145 14.559146 -1.472981 6.539778 -0.336080 -1.683675 0.039522 0.037684 -1.229052 6.131374 16.224374 15.731086 0.000000 0.000000 0.000000 0.249714 0.693420 -6.983255 -2.584180 0.517354 3.724405 5.182563 8.595892 8.978644 0.000000 0.000000 0.000000 8.936947 -0.183917 0.296368 -4.373028 1.913004 3.056935 -4.775573 7.999848 7.443204 7.632747 -6.621425 1.221027 0.000000 0.000000 0.000000 -2.867187 -6.542740 1.288572 -47.279226 6.512505 -8.814638 -124.942305 -50.943811 78.931632 0.000000 0.000000 0.000000 3.514962 -3.148044 -0.954778 50.623835 -18.898190 -11.035306 113.733048 40.495517 71.757612 0.000000 0.000000 0.000000 
-0.184840 0.950913 0.125863 -2.928138 14.692003 -1.705479 6.583556 -0.339806 -1.787343 0.194409 0.023025 -1.123793 6.033450 16.116388 15.751176 0.000000 0.000000 0.000000 0.313044 0.702624 -7.046958 -2.480767 0.505853 3.844957 5.130189 8.479694 9.021821 0.000000 0.000000 0.000000 8.899628 -0.223632 0.700303 -4.233411 1.827046 3.408644 -4.709511 7.843608 6.874949 7.690172 -6.423016 0.507628 0.000000 0.000000 0.000000 -3.937071 -7.092292 1.243447 -48.571512 4.527726 -8.213225 -127.164846 -54.270787 86.291393 0.000000 0.000000 0.000000 4.572332 -3.104272 -0.858776 52.769372 -17.122254 -10.895863 116.468307 43.886125 79.530555 0.000000 0.000000 0.000000 
-0.187261 0.950436 0.122554 -3.075693 14.646563 -2.010118 6.774509 -0.343738 -1.812890 0.317184 0.009345 -0.990641 6.041174 16.128157 15.761809 0.000000 0.000000 0.000000 0.475080 0.733382 -7.263450 -2.309432 0.495992 4.299423 5.142450 8.486508 9.037219 0.000000 0.000000 0.000000 8.746799 -0.288503 1.383559 -4.177920 1.806955 3.355383 -4.533321 8.295598 6.573107 7.992453 -6.655774 0.426436 0.000000 0.000000 0.000000 -4.951726 -8.027007 1.304230 -49.896387 2.869983 -7.704148 -127.527919 -57.692779 90.812595 0.000000 0.000000 0.000000 5.983736 -2.401595 -0.402592 54.782386 -14.849272 -10.483062 118.345066 48.246908 87.969310 0.000000 0.000000 0.000000 
-0.189264 0.950149 0.119742 -3.018754 14.742428 -2.367132 6.669285 -0.338356 -1.909546 0.537755 -0.025644 -0.515062 5.966669 16.040184 15.741976 0.000000 0.000000 0.000000 0.361483 0.723276 -7.250615 -2.077296 0.469472 4.644123 5.106450 8.421551 9.020496 0.000000 0.000000 0.000000 8.561021 -0.339504 1.973237 -4.030594 1.737945 3.338070 -4.439301 8.457950 6.355922 7.864012 -6.276064 -0.350410 0.000000 0.000000 0.000000 -5.790217 -8.794618 1.369159 -50.736451 1.621954 -7.255425 -127.558758 -61.603389 95.486753 0.000000 0.000000 0.000000 7.118155 -1.770222 0.012767 56.594261 -12.714243 -9.997886 119.118302 52.286001 94.283932 0.000000 0.000000 0.000000 
-0.190630 0.950033 0.117742 -2.996053 14.786871 -2.668022 6.642719 -0.329163 -1.737668 0.636656 -0.033558 -0.510724 5.902478 15.969021 15.796219 0.000000 0.000000 0.000000 0.242411 0.689765 -6.972185 -1.818017 0.420203 4.487840 5.124274 8.410952 9.131409 0.000000 0.000000 0.000000 8.288463 -0.373321 2.447201 -3.885333 1.661080 3.488393 -4.403986 8.975002 5.881433 8.215047 -6.316945 -1.081694 0.000000 0.000000 0.000000 -6.657679 -9.563052 1.390122 -51.189373 1.565107 -7.167214 -127.825960 -65.002519 99.397180 0.000000 0.000000 0.000000 8.787153 -1.325685 0.449507 57.610808 -10.386347 -9.250382 119.867217 56.598171 100.766117 0.000000 0.000000 0.000000 
-0.191481 0.950117 0.116317 -2.852977 15.009857 -2.733957 6.585037 -0.325316 -1.594014 0.515853 -0.010847 -0.842348 5.731424 15.781395 15.909817 0.000000 0.000000 0.000000 -0.121084 0.643983 -6.755725 -1.416908 0.341088 4.155548 5.081166 8.276767 9.275944 0.000000 0.000000 0.000000 8.190432 -0.366861 2.442430 -3.871769 1.632125 3.828877 -4.458374 9.012984 5.657564 8.288968 -6.432093 -0.919988 0.000000 0.000000 0.000000 -7.101574 -9.474408 1.241014 -51.595895 1.905450 -7.335842 -128.138425 -67.110297 102.109660 0.000000 0.000000 0.000000 9.729034 -0.996640 0.733972 58.649957 -8.721932 -8.716365 119.768040 60.307376 104.977606 0.000000 0.000000 0.000000 
-0.192045 0.950111 0.115128 -2.704939 15.384658 -2.908487 6.504691 -0.322012 -1.488841 0.394234 0.000989 -0.912791 5.500132 15.501585 15.889057 0.000000 0.000000 0.000000 -0.305693 0.613862 -6.580457 -1.375134 0.333860 4.186455 4.926379 8.011833 9.235329 0.000000 0.000000 0.000000 8.259195 -0.375106 2.514864 -3.857360 1.610288 3.984216 -4.695966 8.996411 5.636609 8.212274 -6.132183 -1.592409 0.000000 0.000000 0.000000 -7.405712 -9.911691 1.311014 -52.255455 2.509275 -7.705293 -127.871933 -68.937992 103.734067 0.000000 0.000000 0.000000 10.729822 -0.745560 1.007546 60.081265 -6.926900 -8.121608 118.871061 64.266754 108.313907 0.000000 0.000000 0.000000 
